<?xml version="1.0" encoding="UTF-8" standalone="no"?>
<!-- Created with Inkscape (http://www.inkscape.org/) -->

<svg
   width="210mm"
   height="210mm"
   viewBox="0 0 210 210"
   version="1.1"
   id="svg1"
   inkscape:version="1.4.3 (0d15f75, 2025-12-25)"
   sodipodi:docname="logo.svg"
   xmlns:inkscape="http://www.inkscape.org/namespaces/inkscape"
   xmlns:sodipodi="http://sodipodi.sourceforge.net/DTD/sodipodi-0.dtd"
   xmlns="http://www.w3.org/2000/svg"
   xmlns:svg="http://www.w3.org/2000/svg">
  <sodipodi:namedview
     id="namedview1"
     pagecolor="#ffffff"
     bordercolor="#000000"
     borderopacity="0.25"
     inkscape:showpageshadow="2"
     inkscape:pageopacity="0.0"
     inkscape:pagecheckerboard="0"
     inkscape:deskcolor="#d1d1d1"
     inkscape:document-units="mm"
     showguides="true"
     inkscape:zoom="0.26604988"
     inkscape:cx="1633.1524"
     inkscape:cy="302.57485"
     inkscape:window-width="1920"
     inkscape:window-height="1129"
     inkscape:window-x="1912"
     inkscape:window-y="-8"
     inkscape:window-maximized="1"
     inkscape:current-layer="layer1">
    <sodipodi:guide
       position="598.78246,251.84093"
       orientation="0,-1"
       id="guide1"
       inkscape:locked="false" />
    <inkscape:page
       x="0"
       y="0"
       width="210"
       height="210"
       id="page2"
       margin="0"
       bleed="0" />
    <inkscape:page
       x="220"
       y="0"
       width="210"
       height="210"
       id="page3"
       margin="0"
       bleed="0" />
    <inkscape:page
       x="440"
       y="0"
       width="210"
       height="210"
       id="page4"
       margin="0"
       bleed="0" />
    <inkscape:page
       x="660"
       y="0"
       width="210"
       height="210"
       id="page5"
       margin="0"
       bleed="0" />
    <sodipodi:guide
       position="638.16216,-20.652554"
       orientation="0,-1"
       id="guide5"
       inkscape:locked="false" />
  </sodipodi:namedview>
  <defs
     id="defs1">
    <rect
       x="1748.831"
       y="636.54258"
       width="689.69853"
       height="168.77016"
       id="rect6" />
  </defs>
  <g
     inkscape:label="Layer 1"
     inkscape:groupmode="layer"
     id="layer1"
     transform="translate(131.50008,-4.219254)">
    <circle
       style="fill:#ffffff;fill-opacity:1;stroke:#000000;stroke-width:15;stroke-dasharray:none"
       id="path1"
       cx="-57.738083"
       cy="109.14487"
       r="34.912617" />
    <path
       style="fill:none;stroke:#000000;stroke-width:15;stroke-linecap:round;stroke-dasharray:none"
       id="path1-8"
       sodipodi:type="arc"
       sodipodi:cx="12.319504"
       sodipodi:cy="109.67052"
       sodipodi:rx="34.912617"
       sodipodi:ry="34.912617"
       sodipodi:start="0.84536519"
       sodipodi:end="5.4169539"
       sodipodi:open="true"
       sodipodi:arc-type="arc"
       d="m 35.482562,135.79261 a 34.912617,34.912617 0 0 1 -48.16966,-1.75899 34.912617,34.912617 0 0 1 -0.502885,-48.199145 34.912617,34.912617 0 0 1 48.122473,-2.763651" />
    <path
       style="fill:none;stroke:#000000;stroke-width:18.6054;stroke-linecap:round;stroke-dasharray:none"
       id="path1-8-6"
       sodipodi:type="arc"
       sodipodi:cx="197.08772"
       sodipodi:cy="109.34254"
       sodipodi:rx="43.304203"
       sodipodi:ry="43.304203"
       sodipodi:start="0.4802826"
       sodipodi:end="5.6810892"
       sodipodi:arc-type="arc"
       d="m 235.49268,129.35037 a 43.304203,43.304203 0 0 1 -47.41893,22.34783 43.304203,43.304203 0 0 1 -34.20993,-39.71978 43.304203,43.304203 0 0 1 29.12998,-43.582378 43.304203,43.304203 0 0 1 49.78309,16.42024"
       sodipodi:open="true" />
    <path
       style="fill:#ffffff;fill-opacity:1;stroke:#000000;stroke-width:18.3619;stroke-linecap:round;stroke-dasharray:none"
       id="path1-1"
       sodipodi:type="arc"
       sodipodi:cx="162.10724"
       sodipodi:cy="109.69823"
       sodipodi:rx="25.538847"
       sodipodi:ry="25.538847"
       sodipodi:start="2.5437006"
       sodipodi:end="2.5296901"
       sodipodi:open="true"
       sodipodi:arc-type="arc"
       d="m 140.99877,124.07408 a 25.538847,25.538847 0 0 1 6.65877,-35.433841 25.538847,25.538847 0 0 1 35.45695,6.534618 25.538847,25.538847 0 0 1 -6.41039,35.479623 25.538847,25.538847 0 0 1 -35.50185,-6.28608" />
    <g
       id="g6"
       transform="matrix(0.69404575,0,0,0.69404575,125.43771,24.314064)">
      <path
         style="fill:none;stroke:#000000;stroke-width:15;stroke-linecap:round;stroke-dasharray:none"
         id="path1-8-6-2"
         sodipodi:type="arc"
         sodipodi:cx="443.43387"
         sodipodi:cy="86.360756"
         sodipodi:rx="43.304203"
         sodipodi:ry="43.304203"
         sodipodi:start="0.91223441"
         sodipodi:end="5.3647823"
         sodipodi:arc-type="arc"
         d="m 469.93518,120.60889 a 43.304203,43.304203 0 0 1 -58.32855,-4.88352 43.304203,43.304203 0 0 1 -0.18053,-58.532346 43.304203,43.304203 0 0 1 58.29732,-5.243222"
         sodipodi:open="true" />
      <path
         style="fill:#ffffff;fill-opacity:1;stroke:#000000;stroke-width:16.7497;stroke-linecap:round;stroke-dasharray:none"
         id="path1-1-3"
         sodipodi:type="arc"
         sodipodi:cx="370.60672"
         sodipodi:cy="86.987175"
         sodipodi:rx="28.517899"
         sodipodi:ry="28.517899"
         sodipodi:start="3.6044983"
         sodipodi:end="2.7348352"
         sodipodi:open="true"
         sodipodi:arc-type="arc"
         d="m 345.09008,74.252512 a 28.517899,28.517899 0 0 1 32.44739,-14.928223 28.517899,28.517899 0 0 1 21.57591,28.463395 28.517899,28.517899 0 0 1 -23.13924,27.207726 28.517899,28.517899 0 0 1 -31.5585,-16.725601" />
    </g>
    <path
       style="fill:none;stroke:#000000;stroke-width:18.6054;stroke-linecap:round;stroke-dasharray:none"
       id="path1-8-6-2-3"
       sodipodi:type="arc"
       sodipodi:cx="637.07349"
       sodipodi:cy="109.58945"
       sodipodi:rx="43.304203"
       sodipodi:ry="43.304203"
       sodipodi:start="0.4802826"
       sodipodi:end="5.6810892"
       sodipodi:arc-type="arc"
       d="m 675.47844,129.59728 a 43.304203,43.304203 0 0 1 -47.41893,22.34783 43.304203,43.304203 0 0 1 -34.20993,-39.71977 43.304203,43.304203 0 0 1 29.12999,-43.582388 43.304203,43.304203 0 0 1 49.78309,16.420241"
       sodipodi:open="true" />
    <path
       style="fill:#ffffff;fill-opacity:1;stroke:#000000;stroke-width:11.5511;stroke-linecap:round;stroke-dasharray:none"
       id="path1-1-3-8"
       sodipodi:type="arc"
       sodipodi:cx="637.14844"
       sodipodi:cy="109.34481"
       sodipodi:rx="16.065939"
       sodipodi:ry="16.065939"
       sodipodi:start="2.5437006"
       sodipodi:end="2.5296901"
       sodipodi:open="true"
       sodipodi:arc-type="arc"
       d="m 623.86955,118.38835 a 16.065939,16.065939 0 0 1 4.18889,-22.290666 16.065939,16.065939 0 0 1 22.3052,4.110786 16.065939,16.065939 0 0 1 -4.03263,22.31947 16.065939,16.065939 0 0 1 -22.33345,-3.95444" />
    <text
       xml:space="preserve"
       transform="matrix(0.26458333,0,0,0.26458333,-138.90144,-42.283397)"
       id="text6"
       style="font-style:normal;font-variant:normal;font-weight:normal;font-stretch:normal;font-size:96px;font-family:Monospace;-inkscape-font-specification:Monospace;text-align:center;writing-mode:lr-tb;direction:ltr;white-space:pre;shape-inside:url(#rect6);fill:none;fill-opacity:1;stroke:#000000;stroke-width:3.77953;stroke-linecap:butt;stroke-dasharray:none"
       x="285.04883"
       y="0"><tspan
         x="1774.2275"
         y="721.96162"
         id="tspan2"><tspan
           style="font-family:Corbel;-inkscape-font-specification:Corbel;fill:#000000"
           id="tspan1">openCollections</tspan></tspan></text>
  </g>
</svg>
